<svg width="7432" height="5478" viewBox="0 0 7432 5478" fill="none" xmlns="http://www.w3.org/2000/svg">
<path d="M461 1442H2364V413H1174C782 413 461 734 461 1126V1442Z" fill="#B7B7B7"/>
<path d="M461 2731H2364V1687H461V2731Z" fill="#B7B7B7"/>
<path d="M461 4021H2364V2977H461V4021Z" fill="#B7B7B7"/>
<path d="M2364 4267H461V4352C461 4744 782 5065 1174 5065H2364V4267Z" fill="#B7B7B7"/>
<path d="M6971 4267H4683V5065H6258C6650 5065 6971 4744 6971 4352V4267Z" fill="#B7B7B7"/>
<path d="M6971 3000H4683V4021H6971V3000Z" fill="#B7B7B7"/>
<path d="M4683 2754H6971V1710H4683V2754Z" fill="#B7B7B7"/>
<path d="M4437 1587C4437 1520 4492 1465 4560 1465H6971V1126C6971 734 6650 413 6258 413H2610V5065H4437C4437 3904 4437 2747 4437 1587Z" fill="#B7B7B7"/>
<path d="M6578 0H854C384 0 0 384 0 855V4623C0 5094 384 5478 854 5478H6578C7048 5478 7432 5094 7432 4623V855C7432 384 7048 0 6578 0ZM1174 167C2869 167 4563 167 6258 167C6786 167 7217 598 7217 1126C7217 2201 7217 3277 7217 4352C7217 4880 6786 5311 6258 5311C4563 5311 2869 5311 1174 5311C646 5311 215 4880 215 4352C215 3277 215 2201 215 1126C215 598 646 167 1174 167Z" fill="#B7B7B7"/>
</svg>
