<svg width="23" height="23" viewBox="0 0 23 23" fill="none" xmlns="http://www.w3.org/2000/svg">
<path d="M21.25 15C20.9186 15.0005 20.601 15.1324 20.3667 15.3667C20.1324 15.601 20.0005 15.9186 20 16.25V19.25C19.9995 19.4488 19.9203 19.6392 19.7797 19.7797C19.6392 19.9203 19.4488 19.9995 19.25 20H3.25C3.05125 19.9995 2.86079 19.9203 2.72025 19.7797C2.57971 19.6392 2.50053 19.4488 2.5 19.25V16.25C2.5 15.9185 2.3683 15.6005 2.13388 15.3661C1.89946 15.1317 1.58152 15 1.25 15C0.918479 15 0.600537 15.1317 0.366117 15.3661C0.131696 15.6005 0 15.9185 0 16.25V19.25C0.00105851 20.1116 0.343808 20.9377 0.953072 21.5469C1.56234 22.1562 2.38837 22.4989 3.25 22.5H19.25C20.1116 22.4989 20.9377 22.1562 21.5469 21.5469C22.1562 20.9377 22.4989 20.1116 22.5 19.25V16.25C22.4995 15.9186 22.3676 15.601 22.1333 15.3667C21.899 15.1324 21.5814 15.0005 21.25 15Z" fill="#B7B7B7"/>
<path d="M11.25 0C10.9186 0.000528905 10.601 0.132395 10.3667 0.366701C10.1324 0.601007 10.0005 0.918642 10 1.25V12.581L6.05 9.29C5.79525 9.07817 5.46687 8.97606 5.13691 9.00605C4.80696 9.03605 4.50238 9.19571 4.29 9.45C4.07817 9.70475 3.97606 10.0331 4.00605 10.3631C4.03605 10.693 4.19571 10.9976 4.45 11.21L10.45 16.21C10.513 16.2547 10.5799 16.2935 10.65 16.326C10.6957 16.3566 10.7435 16.384 10.793 16.408C10.9372 16.4687 11.0921 16.5 11.2485 16.5C11.4049 16.5 11.5598 16.4687 11.704 16.408C11.7523 16.3839 11.7991 16.3569 11.844 16.327C11.914 16.2945 11.981 16.2556 12.044 16.211L18.044 11.211C18.2412 11.047 18.3832 10.8262 18.4507 10.5787C18.5181 10.3312 18.5078 10.0689 18.4211 9.82751C18.3344 9.58608 18.1755 9.37717 17.966 9.22913C17.7565 9.08109 17.5065 9.0011 17.25 9C16.9577 9.00055 16.6748 9.10312 16.45 9.29L12.5 12.581V1.25C12.4995 0.918642 12.3676 0.601007 12.1333 0.366701C11.899 0.132395 11.5814 0.000528905 11.25 0Z" fill="#B7B7B7"/>
</svg>
