<svg width="65" height="64" viewBox="0 0 65 64" fill="none" xmlns="http://www.w3.org/2000/svg">
<path d="M32.0391 30.9941C30.9782 30.9941 29.9608 31.4156 29.2106 32.1657C28.4605 32.9159 28.0391 33.9333 28.0391 34.9941V43.9941C28.0391 45.055 28.4605 46.0724 29.2106 46.8226C29.9608 47.5727 30.9782 47.9941 32.0391 47.9941C33.0999 47.9941 34.1173 47.5727 34.8675 46.8226C35.6176 46.0724 36.0391 45.055 36.0391 43.9941V34.9941C36.0391 33.9333 35.6176 32.9159 34.8675 32.1657C34.1173 31.4156 33.0999 30.9941 32.0391 30.9941Z" fill="black" fill-opacity="0.5"/>
<path d="M32.0391 24.9941C34.2482 24.9941 36.0391 23.2033 36.0391 20.9941C36.0391 18.785 34.2482 16.9941 32.0391 16.9941C29.8299 16.9941 28.0391 18.785 28.0391 20.9941C28.0391 23.2033 29.8299 24.9941 32.0391 24.9941Z" fill="black" fill-opacity="0.5"/>
<path d="M45.9294 1.14394C36.7322 -0.381313 27.3466 -0.381313 18.1494 1.14394C13.8951 1.84672 9.96777 3.86426 6.91876 6.91327C3.86975 9.96228 1.85222 13.8896 1.14943 18.1439C-0.383145 27.3439 -0.383145 36.734 1.14943 45.9339C1.85222 50.1882 3.86975 54.1156 6.91876 57.1646C9.96777 60.2136 13.8951 62.2312 18.1494 62.9339C22.7425 63.6679 27.3882 64.0224 32.0394 63.9939C36.6932 63.9929 41.3389 63.6082 45.9294 62.8439C50.1843 62.1426 54.1125 60.1255 57.1617 57.0762C60.211 54.027 62.2281 50.0988 62.9294 45.8439C63.6781 41.2655 64.0493 36.6332 64.0394 31.9939C64.0385 27.3402 63.6538 22.6945 62.8894 18.1039C62.1828 13.862 60.1683 9.94682 57.1274 6.90595C54.0865 3.86509 50.1714 1.85052 45.9294 1.14394ZM55.0394 44.5739C54.6097 47.1836 53.3721 49.5928 51.501 51.4621C49.6299 53.3314 47.2195 54.5667 44.6094 54.9939C36.283 56.375 27.7859 56.375 19.4594 54.9939C16.8497 54.5642 14.4406 53.3266 12.5713 51.4555C10.702 49.5844 9.46671 47.1741 9.03943 44.5639C7.65287 36.2379 7.65287 27.7399 9.03943 19.4139C9.46862 16.8056 10.7047 14.3975 12.5739 12.5284C14.443 10.6592 16.8511 9.42313 19.4594 8.99394C27.7854 7.60701 36.2835 7.60701 44.6094 8.99394C47.2216 9.42038 49.6337 10.6567 51.5052 12.5282C53.3767 14.3997 54.613 16.8118 55.0394 19.4239C55.7171 23.5794 56.0516 27.7836 56.0394 31.9939C56.0519 36.2076 55.7175 40.4152 55.0394 44.5739Z" fill="black" fill-opacity="0.5"/>
</svg>
